/* XPM */
static char *fa791e62df944fc9dc21e9897ff8c58fDCaB5IZ9UHGO0VAZ[] = {
/* columns rows colors chars-per-pixel */
"32 32 9 1 ",
"  c black",
". c #33691E",
"X c #1B5E20",
"o c #2E7D32",
"O c #FF5722",
"+ c #558B2F",
"@ c #22B14C",
"# c #66BB6A",
"$ c #FCE4EC",
/* pixels */
"###########.+@@.##o...o#########",
"   #########+@.###o...ooo###### ",
"##  ########++..##oo.....#######",
"#############++.###o.###.#######",
"##############+.##oo.###......##",
"##############+.##..######.##.##",
"oo############+....##########..o",
"..o###########++.#############..",
"#.o############+.###############",
"#...###########+.###############",
"##o..##########+.###############",
"##o.############.###############",
"##o#############.++#############",
"##..############..+#############",
"#################.+#############",
"#################.+#############",
"################+++#############",
"###############++###############",
"###############+.############.XX",
"XX.###########++.##############X",
"##############+..##############X",
"XX############..############XXXX",
"XXX##########...###########XXXXX",
"##XX.########..#$###############",
"##############.O$O##############",
"##############$$O$$#############",
"###############O$O##############",
"  #########.####$#############  ",
"# #########X################## #",
"    ######XX##################  ",
"### ###XX#X#####################",
"####XXXXXXX#####.XX.############"
};
