/* XPM */
static char *_ec7daa263f647e7e05af0cbe2685525AeFA9XW6yXoTT3aP[] = {
/* columns rows colors chars-per-pixel */
"32 32 10 1 ",
"  c #33691E",
". c #1B5E20",
"X c #2E7D32",
"o c #FF5722",
"O c #558B2F",
"+ c #22B14C",
"@ c #66BB6A",
"# c #18FFFF",
"$ c #82B1FF",
"% c #FCE4EC",
/* pixels */
"########### O++ @@X   X#########",
"############O+ @@@X   XXX#######",
"############OO  @@XX     #######",
"#############OO @@@X ### #######",
"##############O @@XX ###      ##",
"##############O @@  ###### ## ##",
"XX############O    ##########  X",
"  X###########OO #############  ",
"# X############O ###############",
"#   ###########O ###############",
"##X  ##########O ###############",
"##X ############ ###############",
"##X############# OO#############",
"##  ############  O#############",
"################# O#############",
"################# O#############",
"################OOO#############",
"###############OO###############",
"###############O ############ ..",
".. ###########OO ##############.",
"##############O  ##############.",
"..############  ############....",
"...##########   ###########.....",
"##.. ########  @%###############",
"############## $%$##############",
"##############%%o%%#############",
"###############$%$##############",
"########### ####%###############",
"###########.####################",
"##########..####################",
"#######..#.#####################",
"####.......##### .. ############"
};
